<svg xmlns="http://www.w3.org/2000/svg" xmlns:xlink="http://www.w3.org/1999/xlink" width="500" zoomAndPan="magnify" viewBox="0 0 375 374.999991" height="500" preserveAspectRatio="xMidYMid meet" version="1.0"><defs><g/><clipPath id="fecaf6fb14"><path d="M 111.9375 109.914062 L 254.804688 109.914062 L 254.804688 252.78125 L 111.9375 252.78125 Z M 111.9375 109.914062 " clip-rule="nonzero"/></clipPath></defs><g clip-path="url(#fecaf6fb14)"><path fill="#3478f6" d="M 111.9375 109.914062 L 254.804688 109.914062 L 254.804688 252.78125 L 111.9375 252.78125 Z M 111.9375 109.914062 " fill-opacity="1" fill-rule="nonzero"/></g><g fill="#ffffff" fill-opacity="1"><g transform="translate(57.944518, 256.810778)"><g><path d="M 111 -100.34375 C 107.144531 -117.53125 96.117188 -126.125 77.921875 -126.125 C 66.628906 -126.125 57.632812 -121.519531 50.9375 -112.3125 C 44.238281 -103.113281 40.890625 -90.332031 40.890625 -73.96875 C 40.890625 -58.613281 44.132812 -46.285156 50.625 -36.984375 C 57.125 -27.679688 66.222656 -23.03125 77.921875 -23.03125 C 95.773438 -23.03125 106.800781 -32.398438 111 -51.140625 L 142.15625 -51.140625 C 139.914062 -35.847656 133.210938 -22.84375 122.046875 -12.125 C 110.890625 -1.40625 95.976562 3.953125 77.3125 3.953125 C 56.476562 3.953125 39.90625 -2.925781 27.59375 -16.6875 C 15.28125 -30.457031 9.125 -49.6875 9.125 -74.375 C 9.125 -97.976562 15.242188 -117 27.484375 -131.4375 C 39.734375 -145.882812 56.476562 -153.109375 77.71875 -153.109375 C 96.320312 -153.109375 111.351562 -148.082031 122.8125 -138.03125 C 134.28125 -127.988281 140.726562 -115.425781 142.15625 -100.34375 Z M 111 -100.34375 "/></g></g></g><g fill="#ffffff" fill-opacity="1"><g transform="translate(198.241167, 256.810778)"><g><path d="M 39.78125 -74.578125 C 39.78125 -57.253906 43.632812 -44.226562 51.34375 -35.5 C 59.050781 -26.78125 68.820312 -22.421875 80.65625 -22.421875 C 92.5 -22.421875 102.15625 -26.914062 109.625 -35.90625 C 117.101562 -44.90625 120.84375 -57.796875 120.84375 -74.578125 C 120.84375 -91.347656 117.140625 -104.234375 109.734375 -113.234375 C 102.328125 -122.234375 92.5 -126.734375 80.25 -126.734375 C 68.007812 -126.734375 58.203125 -122.25 50.828125 -113.28125 C 43.460938 -104.320312 39.78125 -91.421875 39.78125 -74.578125 Z M 8.625 -74.578125 C 8.625 -100.140625 15.285156 -119.617188 28.609375 -133.015625 C 41.929688 -146.410156 59.078125 -153.109375 80.046875 -153.109375 C 101.023438 -153.109375 118.257812 -146.492188 131.75 -133.265625 C 145.238281 -120.046875 151.984375 -100.484375 151.984375 -74.578125 C 151.984375 -49.273438 145.351562 -29.859375 132.09375 -16.328125 C 118.84375 -2.804688 101.597656 3.953125 80.359375 3.953125 C 60.128906 3.953125 43.113281 -2.453125 29.3125 -15.265625 C 15.519531 -28.085938 8.625 -47.859375 8.625 -74.578125 Z M 8.625 -74.578125 "/></g></g></g><g fill="#ffffff" fill-opacity="1"><g transform="translate(348.887349, 256.810778)"><g><path d="M 46.375 -26.984375 L 120.53125 -26.984375 L 120.53125 0 L 15.21875 0 L 15.21875 -149.15625 L 46.375 -149.15625 Z M 46.375 -26.984375 "/></g></g></g><g fill="#3478f6" fill-opacity="1"><g transform="translate(261.913533, 162.278689)"><g><path d="M -0.078125 2.3125 C -0.078125 1.882812 0.0078125 1.519531 0.1875 1.21875 C 0.375 0.914062 0.628906 0.679688 0.953125 0.515625 C 1.285156 0.347656 1.664062 0.265625 2.09375 0.265625 C 2.53125 0.265625 2.910156 0.347656 3.234375 0.515625 C 3.566406 0.679688 3.820312 0.914062 4 1.21875 C 4.1875 1.519531 4.28125 1.882812 4.28125 2.3125 C 4.28125 2.820312 4.15625 3.238281 3.90625 3.5625 C 3.65625 3.882812 3.300781 4.082031 2.84375 4.15625 L 2.84375 3.3125 C 3.070312 3.257812 3.25 3.144531 3.375 2.96875 C 3.507812 2.800781 3.578125 2.578125 3.578125 2.296875 C 3.578125 1.910156 3.445312 1.609375 3.1875 1.390625 C 2.925781 1.171875 2.5625 1.0625 2.09375 1.0625 C 1.632812 1.0625 1.273438 1.171875 1.015625 1.390625 C 0.753906 1.609375 0.625 1.910156 0.625 2.296875 C 0.625 2.578125 0.679688 2.800781 0.796875 2.96875 C 0.921875 3.144531 1.09375 3.257812 1.3125 3.3125 L 1.3125 4.15625 C 0.875 4.082031 0.53125 3.882812 0.28125 3.5625 C 0.0390625 3.238281 -0.078125 2.820312 -0.078125 2.3125 Z M -0.078125 2.3125 "/></g></g></g><g fill="#3478f6" fill-opacity="1"><g transform="translate(261.913533, 171.11571)"><g><path d="M -0.078125 2.375 C -0.078125 1.957031 0.015625 1.59375 0.203125 1.28125 C 0.390625 0.96875 0.644531 0.71875 0.96875 0.53125 C 1.300781 0.351562 1.679688 0.265625 2.109375 0.265625 C 2.535156 0.265625 2.910156 0.351562 3.234375 0.53125 C 3.566406 0.71875 3.820312 0.96875 4 1.28125 C 4.1875 1.59375 4.28125 1.957031 4.28125 2.375 C 4.28125 2.789062 4.1875 3.15625 4 3.46875 C 3.820312 3.789062 3.566406 4.039062 3.234375 4.21875 C 2.910156 4.394531 2.535156 4.484375 2.109375 4.484375 C 1.679688 4.484375 1.300781 4.394531 0.96875 4.21875 C 0.644531 4.039062 0.390625 3.789062 0.203125 3.46875 C 0.015625 3.15625 -0.078125 2.789062 -0.078125 2.375 Z M 0.625 2.375 C 0.625 2.78125 0.753906 3.101562 1.015625 3.34375 C 1.273438 3.582031 1.640625 3.703125 2.109375 3.703125 C 2.566406 3.703125 2.925781 3.582031 3.1875 3.34375 C 3.457031 3.101562 3.59375 2.78125 3.59375 2.375 C 3.59375 1.976562 3.457031 1.660156 3.1875 1.421875 C 2.925781 1.179688 2.566406 1.0625 2.109375 1.0625 C 1.640625 1.0625 1.273438 1.179688 1.015625 1.421875 C 0.753906 1.660156 0.625 1.976562 0.625 2.375 Z M 0.625 2.375 "/></g></g></g><g fill="#3478f6" fill-opacity="1"><g transform="translate(261.913533, 180.277361)"><g><path d="M 0 0.40625 L 4.203125 0.40625 L 4.203125 1.171875 L 0.59375 1.171875 L 0.59375 3.046875 L 0 3.046875 Z M 0 0.40625 "/></g></g></g><g fill="#3478f6" fill-opacity="1"><g transform="translate(261.913533, 187.996228)"><g><path d="M 0 0.140625 L 4.203125 1.671875 L 4.203125 2.546875 L 0 4.078125 L 0 3.265625 L 0.96875 2.921875 L 0.96875 1.28125 L 0 0.9375 Z M 1.578125 1.5 L 1.578125 2.71875 L 3.328125 2.109375 Z M 1.578125 1.5 "/></g></g></g><g fill="#3478f6" fill-opacity="1"><g transform="translate(261.913533, 196.616836)"><g><path d="M 0 0.40625 L 4.203125 0.40625 L 4.203125 2.09375 C 4.203125 2.53125 4.101562 2.863281 3.90625 3.09375 C 3.707031 3.332031 3.445312 3.453125 3.125 3.453125 C 2.863281 3.453125 2.648438 3.378906 2.484375 3.234375 C 2.328125 3.085938 2.222656 2.914062 2.171875 2.71875 C 2.117188 2.957031 2 3.15625 1.8125 3.3125 C 1.625 3.46875 1.40625 3.546875 1.15625 3.546875 C 0.820312 3.546875 0.546875 3.425781 0.328125 3.1875 C 0.109375 2.945312 0 2.601562 0 2.15625 Z M 2.4375 1.171875 L 2.4375 1.984375 C 2.4375 2.203125 2.488281 2.367188 2.59375 2.484375 C 2.695312 2.597656 2.835938 2.65625 3.015625 2.65625 C 3.191406 2.65625 3.332031 2.597656 3.4375 2.484375 C 3.539062 2.367188 3.59375 2.195312 3.59375 1.96875 L 3.59375 1.171875 Z M 0.625 1.171875 L 0.625 2.046875 C 0.625 2.265625 0.675781 2.4375 0.78125 2.5625 C 0.882812 2.695312 1.035156 2.765625 1.234375 2.765625 C 1.429688 2.765625 1.582031 2.695312 1.6875 2.5625 C 1.800781 2.425781 1.859375 2.25 1.859375 2.03125 L 1.859375 1.171875 Z M 0.625 1.171875 "/></g></g></g></svg>